<svg width="89" height="89" viewBox="0 0 89 89" fill="none" xmlns="http://www.w3.org/2000/svg">
<g id="tech-icon-3.svg" clip-path="url(#clip0_1_1400)">
<path id="Vector" d="M66.0606 62.8065C66.6122 60.1429 66.9143 57.4338 66.963 54.7141C66.963 39.7393 59.0294 26.143 48.4875 14.6392C43.2436 16.7006 38.3291 19.517 33.8995 22.9993C42.4282 29.8024 50.3618 39.0154 50.3618 49.6564C50.4713 56.5356 48.5724 63.2973 44.8975 69.1137L18.4189 83.7712C22.4169 85.6472 26.7008 86.8405 31.093 87.3016C57.1253 88.9776 65.0094 66.2973 66.0606 62.8065Z" fill="url(#paint0_linear_1_1400)"/>
<path id="Vector_2" d="M32.5115 65.762C33.1706 65.8268 33.8327 65.8566 34.4949 65.8512C34.4949 65.8512 21.3052 66.3768 11.0906 57.5804C7.04524 54.1177 3.77724 49.8392 1.5008 45.0254C1.03149 47.3099 0.788998 49.6351 0.776855 51.9673C0.776855 72.8527 11.8641 81.7185 22.0688 85.2887C26.5259 83.8603 30.7692 81.8353 34.6833 79.269H34.7329L34.9808 79.1004C39.7609 75.8377 49.1226 67.8346 50.1738 53.6334C50.1738 53.6334 46.5342 66.6743 32.5115 65.762Z" fill="url(#paint1_linear_1_1400)"/>
<path id="Vector_3" d="M48.5575 14.7186C44.1273 9.93137 39.3509 5.4765 34.267 1.39014C18.8559 13.1022 4.80336 28.91 1.50098 45.0252C3.7587 49.8568 7.01339 54.1558 11.0511 57.6398C21.2657 66.3965 34.4951 65.8511 34.4951 65.8511C29.7051 65.8511 17.4278 63.6594 17.4278 48.1392C17.3881 33.7991 36.7562 19.0028 48.5575 14.7186Z" fill="url(#paint2_linear_1_1400)"/>
</g>
<defs>
<linearGradient id="paint0_linear_1_1400" x1="47.7338" y1="74.5086" x2="29.2087" y2="36.1196" gradientUnits="userSpaceOnUse">
<stop stop-color="#03E7F5"/>
<stop offset="0.37" stop-color="#02ACF3"/>
<stop offset="0.8" stop-color="#016DF0"/>
<stop offset="1" stop-color="#0055EF"/>
</linearGradient>
<linearGradient id="paint1_linear_1_1400" x1="16.783" y1="49.3194" x2="38.0849" y2="75.8278" gradientUnits="userSpaceOnUse">
<stop stop-color="#03E7F5"/>
<stop offset="0.37" stop-color="#02ACF3"/>
<stop offset="0.8" stop-color="#016DF0"/>
<stop offset="1" stop-color="#0055EF"/>
</linearGradient>
<linearGradient id="paint2_linear_1_1400" x1="36.2901" y1="25.5283" x2="17.9832" y2="52.1655" gradientUnits="userSpaceOnUse">
<stop stop-color="#03E7F5"/>
<stop offset="0.37" stop-color="#02ACF3"/>
<stop offset="0.8" stop-color="#016DF0"/>
<stop offset="1" stop-color="#0055EF"/>
</linearGradient>
<clipPath id="clip0_1_1400">
<rect width="88" height="88" fill="white" transform="translate(0.5 0.390137)"/>
</clipPath>
</defs>
</svg>
