<svg width="89" height="89" viewBox="0 0 89 89" fill="none" xmlns="http://www.w3.org/2000/svg">
<g id="tech-icon-4.svg" clip-path="url(#clip0_1_1412)">
<path id="Vector" d="M0.5 49.0005V63.9383C0.5 63.9383 10.2385 73.0284 31.8849 73.0284C53.5313 73.0284 64.1658 64.1506 64.1658 64.1506V49.0005C64.1658 49.0005 49.2279 57.6661 32.3329 57.6661C15.4379 57.6661 0.5 49.0005 0.5 49.0005Z" fill="url(#paint0_linear_1_1412)"/>
<path id="Vector_2" d="M0.5 64.3623V79.2884C0.5 79.2884 10.2385 88.3902 31.8849 88.3902C53.5313 88.3902 64.1658 79.5124 64.1658 79.5124V64.3623C64.1658 64.3623 49.2043 73.0161 32.3329 73.0161C15.4615 73.0161 0.5 64.3623 0.5 64.3623Z" fill="url(#paint1_linear_1_1412)"/>
<path id="Vector_3" d="M32.3211 57.6424C49.8954 57.6424 64.1422 53.0132 64.1422 47.3027C64.1422 41.5921 49.8954 36.9629 32.3211 36.9629C14.7468 36.9629 0.5 41.5921 0.5 47.3027C0.5 53.0132 14.7468 57.6424 32.3211 57.6424Z" fill="url(#paint2_linear_1_1412)"/>
<path id="Vector_4" d="M32.3332 50.9573V0.390137L11.3589 9.82211C11.4296 31.8929 19.27 44.5907 32.3332 50.9573Z" fill="url(#paint3_linear_1_1412)"/>
<path id="Vector_5" d="M32.333 0.390137V50.9573C45.3727 44.5907 53.213 31.8929 53.2838 9.82211L32.333 0.390137Z" fill="url(#paint4_linear_1_1412)"/>
<path id="Vector_6" d="M32.5455 36.3849C32.0752 36.4061 31.6093 36.286 31.2079 36.0401C30.8064 35.7942 30.4877 35.4338 30.2929 35.0052C30.098 34.5766 30.0359 34.0995 30.1145 33.6354C30.1932 33.1712 30.409 32.7412 30.7341 32.4007C31.0593 32.0603 31.4789 31.8249 31.939 31.725C32.399 31.6251 32.8785 31.6652 33.3155 31.8401C33.7526 32.015 34.1273 32.3168 34.3914 32.7065C34.6555 33.0962 34.7969 33.5561 34.7974 34.0269C34.798 34.6343 34.5642 35.2185 34.1447 35.6578C33.7252 36.0971 33.1523 36.3575 32.5455 36.3849ZM33.418 30.3012H31.3901L29.0321 12.0386C29.0254 11.5957 29.1089 11.156 29.2775 10.7464C29.4461 10.3368 29.6963 9.9657 30.0128 9.65579C30.3293 9.34588 30.7056 9.10361 31.1187 8.9437C31.5318 8.7838 31.9731 8.70962 32.4158 8.72566C32.8721 8.68195 33.3325 8.73586 33.7664 8.8838C34.2003 9.03173 34.5977 9.27031 34.9322 9.58368C35.2668 9.89704 35.5308 10.278 35.7068 10.7013C35.8827 11.1245 35.9666 11.5804 35.9528 12.0386L33.418 30.3012Z" fill="black"/>
</g>
<defs>
<linearGradient id="paint0_linear_1_1412" x1="12.7498" y1="41.2427" x2="59.7092" y2="77.8151" gradientUnits="userSpaceOnUse">
<stop stop-color="#03E7F5"/>
<stop offset="1" stop-color="#19B9F0"/>
</linearGradient>
<linearGradient id="paint1_linear_1_1412" x1="0.5" y1="76.3762" x2="64.1422" y2="76.3762" gradientUnits="userSpaceOnUse">
<stop stop-color="#1162D8"/>
<stop offset="0.57" stop-color="#0788ED"/>
<stop offset="1" stop-color="#00A0FB"/>
</linearGradient>
<linearGradient id="paint2_linear_1_1412" x1="0.5" y1="47.3026" x2="64.1422" y2="47.3026" gradientUnits="userSpaceOnUse">
<stop stop-color="#03EFFF"/>
<stop offset="0.51" stop-color="#04EDFE"/>
<stop offset="0.69" stop-color="#07E6FD"/>
<stop offset="0.82" stop-color="#0BDBF9"/>
<stop offset="0.93" stop-color="#12CAF5"/>
<stop offset="1" stop-color="#19B9F0"/>
</linearGradient>
<linearGradient id="paint3_linear_1_1412" x1="54.463" y1="41.6786" x2="4.8744" y2="6.5209" gradientUnits="userSpaceOnUse">
<stop stop-color="#1162D8"/>
<stop offset="0.57" stop-color="#0788ED"/>
<stop offset="1" stop-color="#00A0FB"/>
</linearGradient>
<linearGradient id="paint4_linear_1_1412" x1="55.9011" y1="39.6507" x2="6.31257" y2="4.48126" gradientUnits="userSpaceOnUse">
<stop stop-color="#1162D8"/>
<stop offset="0.57" stop-color="#0788ED"/>
<stop offset="1" stop-color="#00A0FB"/>
</linearGradient>
<clipPath id="clip0_1_1412">
<rect width="88" height="88" fill="white" transform="translate(0.5 0.390137)"/>
</clipPath>
</defs>
</svg>
